<svg xmlns="http://www.w3.org/2000/svg" width="450" height="20" fill="none"><path stroke="#FC0" d="M0 9.5h210M240 9.5h210"/><path fill="#FC0" d="m222.808 13.125-.596-.22a3.924 3.924 0 0 1-1.25-.901c-.544-.582-1.144-1.59-.913-3.09.203-1.318 1.727-2.9 2.709-3.823 1.064-1.001 2.578-2.573 2.506-3.873l-.03-.593h.593c2.006 0 4.173 1.47 4.173 3.844 0 1.78-.859 3.032-2.692 4.176-.312.195-.642.377-.993.568-1.196.649-2.941 1.946-3.349 3.332l-.158.58Zm-.73-8.688c.774-.726 1.473-1.384 1.813-2.101a2.487 2.487 0 0 0-.222-.121c-.464-.222-1.02-.326-1.749-.326h-.661l.021.644c.019.55-.236.88-.559 1.297-.338.438-.721.933-.721 1.678 0 .4.05.733.164 1.03.091-.139.19-.277.297-.416.476-.614 1.057-1.16 1.617-1.685Z"/><path fill="#FC0" d="M227.904 9.37c-.364.23-.742.434-1.143.652-1.275.69-2.479 1.345-2.86 2.634l-.024.078c.563.257 1.174.39 1.792.391a4.35 4.35 0 0 0 3.056-1.225A4.192 4.192 0 0 0 230 8.867a3.624 3.624 0 0 0-.218-1.21c-.444.631-1.061 1.194-1.878 1.712Zm-2.407 4.693h-.994a.157.157 0 0 0-.153.125l-.991 5a.158.158 0 0 0 .087.172c.021.01.043.015.066.015h2.979a.159.159 0 0 0 .121-.057.157.157 0 0 0 .033-.13l-.993-5a.158.158 0 0 0-.155-.126Zm2.225-.222-.444.443a.162.162 0 0 0-.045.095.16.16 0 0 0 .026.103l2.323 3.484c.012.02.029.036.049.048a.157.157 0 0 0 .191-.024l1.606-1.605a.158.158 0 0 0 .045-.126.16.16 0 0 0-.069-.115l-3.485-2.323a.155.155 0 0 0-.197.02Zm2.434-.716a.155.155 0 0 0-.156.156v.337a.156.156 0 0 0 .13.154l3.438.572a.155.155 0 0 0 .167-.088.15.15 0 0 0 .015-.065v-.91a.155.155 0 0 0-.156-.156h-3.438Zm-7.878.716.444.443c.025.026.041.06.045.095a.16.16 0 0 1-.026.103l-2.323 3.484a.157.157 0 0 1-.24.024l-1.606-1.605a.158.158 0 0 1-.045-.126.16.16 0 0 1 .069-.115l3.485-2.323a.155.155 0 0 1 .197.02Zm-2.434-.716h-3.438a.155.155 0 0 0-.156.156v.91a.15.15 0 0 0 .015.065.15.15 0 0 0 .1.085.155.155 0 0 0 .067.004l3.438-.573a.157.157 0 0 0 .13-.154v-.337a.155.155 0 0 0-.156-.156Z"/></svg>